<svg xmlns="http://www.w3.org/2000/svg" viewBox="0 0 591 107"><defs><style>.cls-1{fill:#fff;}</style></defs><title>Asset 3</title><g id="Layer_2" data-name="Layer 2"><g id="Layer_1-2" data-name="Layer 1"><path class="cls-1" d="M323.71,17.4h7.74v7.26h-7.74V47.29h-8.77V24.66H310.7V17.4h4.24V16.07c0-8,4.78-12.64,12.28-12.64a11.06,11.06,0,0,1,4.9,1V11.9a7,7,0,0,0-3.39-.79c-2.84,0-5,1.45-5,5Z"/><path class="cls-1" d="M366.3,17.4V47.29h-8.65v-4A11.6,11.6,0,0,1,348,48c-8.05,0-14.16-6.78-14.16-15.67S339.92,16.68,348,16.68c3.93,0,7.62,1.51,9.68,4.59V17.4Zm-16,22.69a7.75,7.75,0,1,0-7.68-7.74A7.67,7.67,0,0,0,350.27,40.09Z"/><path class="cls-1" d="M377.94,13.89a5.14,5.14,0,1,1,5.14-5.14A5.18,5.18,0,0,1,377.94,13.89Zm-4.42,33.4V17.4h8.84V47.29Z"/><path class="cls-1" d="M408.93,26a5.62,5.62,0,0,0-2.24-.36c-4.9,0-7.81,3.63-7.81,9.5V47.29h-8.77V17.4h8.71v4.9a9.21,9.21,0,0,1,8.59-5.56,6.32,6.32,0,0,1,1.52.18Z"/><path class="cls-1" d="M294,5.37V41.63A5.36,5.36,0,0,1,288.63,47H5.37A5.36,5.36,0,0,1,0,41.63V5.37A5.36,5.36,0,0,1,5.37,0H288.63A5.36,5.36,0,0,1,294,5.37ZM288.63,60H5.37A5.36,5.36,0,0,0,0,65.37v36.26A5.36,5.36,0,0,0,5.37,107H288.63a5.36,5.36,0,0,0,5.37-5.37V65.37A5.36,5.36,0,0,0,288.63,60Z"/><path class="cls-1" d="M326.52,72.15A15.18,15.18,0,0,1,334,74v8.29a11,11,0,0,0-6.47-2.18c-4.6,0-8.11,3.21-8.11,7.75s3.45,7.74,8.11,7.74a11.56,11.56,0,0,0,6.53-2.3v8.35a15.93,15.93,0,0,1-7.68,1.94c-9.2,0-15.86-6.35-15.86-15.73C310.54,78.86,317.14,72.15,326.52,72.15Z"/><path class="cls-1" d="M360.27,72.93h8.84v29.89h-8.84V99a9.8,9.8,0,0,1-8.71,4.6c-6.77,0-10.95-4.72-10.95-12.22V72.93h8.84V89.27c0,3.93,1.93,6.23,5.26,6.23s5.56-2.54,5.56-6.77Z"/><path class="cls-1" d="M385.07,81.28c0,1.09.84,1.88,2.48,2.3l3.75,1c5.62,1.45,8.65,4.6,8.65,8.83,0,6-5.08,10.23-12,10.23-5.93,0-10.65-2.72-12.65-7.32l7.14-3.93a6.38,6.38,0,0,0,5.57,4c1.88,0,3.15-.85,3.15-2.3,0-1-.91-1.82-2.73-2.24L384.88,91c-5.62-1.33-8.53-4.47-8.53-9.19,0-5.69,4.72-9.68,11.56-9.68,5.14,0,10,2.78,11.86,7l-7.2,3.81a5.56,5.56,0,0,0-4.72-3.69C386.22,79.23,385.07,80.07,385.07,81.28Z"/><path class="cls-1" d="M416,64.16v8.77h7.56v7.26H416v11c0,3.2,1.39,4.47,4.3,4.47a6.36,6.36,0,0,0,3.26-.9v7.62a13.83,13.83,0,0,1-6.17,1.21c-6.29,0-10.16-3.87-10.16-10.53V80.19H403V72.93h4.24V64.16Z"/><path class="cls-1" d="M443.75,72.15C453,72.15,460,79,460,87.88s-6.95,15.73-16.21,15.73-16.22-6.84-16.22-15.73S434.49,72.15,443.75,72.15Zm0,23.41a7.69,7.69,0,1,0-7.5-7.68A7.58,7.58,0,0,0,443.75,95.56Z"/><path class="cls-1" d="M497.65,60.47v42.35h-8.77v-4a11.6,11.6,0,0,1-9.68,4.72c-8.05,0-14.16-6.78-14.16-15.67s6.11-15.67,14.16-15.67c3.93,0,7.62,1.51,9.68,4.6V60.47ZM481.5,95.62a7.75,7.75,0,1,0-7.68-7.74A7.66,7.66,0,0,0,481.5,95.62Z"/><path class="cls-1" d="M510.42,69.43a5.15,5.15,0,1,1,5.14-5.15A5.18,5.18,0,0,1,510.42,69.43ZM506,102.82V72.93h8.83v29.89Z"/><path class="cls-1" d="M553.91,72.93v29.89h-8.65v-4a11.57,11.57,0,0,1-9.68,4.72c-8,0-14.15-6.78-14.15-15.67s6.11-15.67,14.15-15.67c3.94,0,7.63,1.51,9.68,4.6V72.93Zm-16,22.69a7.75,7.75,0,1,0-7.68-7.74A7.67,7.67,0,0,0,537.88,95.62Z"/><path class="cls-1" d="M571.16,102.82h-8.84V72.93h8.84v3.82a9.87,9.87,0,0,1,8.83-4.6c6.84,0,11,4.66,11,12.22v18.45h-8.83V86.43c0-3.94-1.94-6.17-5.39-6.17s-5.62,2.54-5.62,6.71Z"/><path class="cls-1" d="M588.56,62.64a4,4,0,1,1-4-3.89A3.91,3.91,0,0,1,588.56,62.64Zm-7,0a3,3,0,0,0,3,3.1,3,3,0,0,0,3-3.08,3,3,0,1,0-6,0Zm2.39,2h-.9V60.79a8.06,8.06,0,0,1,1.5-.12,2.48,2.48,0,0,1,1.35.28,1.11,1.11,0,0,1,.38.86,1,1,0,0,1-.81.9v0a1.12,1.12,0,0,1,.71.94,2.9,2.9,0,0,0,.29,1h-1a3.43,3.43,0,0,1-.31-1c-.07-.43-.31-.62-.81-.62H584Zm0-2.21h.43c.49,0,.9-.17.9-.57s-.26-.59-.83-.59a1.8,1.8,0,0,0-.5,0Z"/></g></g></svg>